# xmcd
#
# Track frame offsets: 
#        150
#        16925
#        36477
#        53860
#        75417
#        95777
#        116772
#        140737
#        163342
#        179495
#        193807
#        215612
#        237934
#
# Disc length: 3474 seconds
#
# Revision: 2
# Processed by: cddbd v1.5.2PL0 Copyright (c) Steve Scherf et al.
# Submitted via: ExactAudioCopyFreeDBPlugin 1.0
#
DISCID=c20d900d
DTITLE=Eric Bibb - Home To Me
DYEAR=2000
DGENRE=Blues
TTITLE0=Walk The Walk
TTITLE1=World War Blues
TTITLE2=Livin', Lovin' An' Doin'
TTITLE3=Bring It On Home To Me
TTITLE4=New Shoes
TTITLE5=Come Back Baby
TTITLE6=For You
TTITLE7=No More Cane On The Brazos
TTITLE8=Put Your Foot Down
TTITLE9=Singin' In My Heart
TTITLE10=Mandela Is Free
TTITLE11=Healing Time
TTITLE12=Sing Your Song (With Taj Mahal)
EXTD=\nYEAR: 2000  ID3G:   0
EXTT0=
EXTT1=
EXTT2=
EXTT3=
EXTT4=
EXTT5=
EXTT6=
EXTT7=
EXTT8=
EXTT9=
EXTT10=
EXTT11=
EXTT12=
PLAYORDER=
